<?xml version="1.0" encoding="UTF-8" standalone="no"?>
<!-- Copyright 2017 mathsisfun.com -->
<svg xmlns="http://www.w3.org/2000/svg" xmlns:xlink="http://www.w3.org/1999/xlink" width="413.4" height="183.7" version="1.1" style="font-family:'Comic Sans MS'; font-size:14.7px; stroke-width:0.37;">
<defs>
	<marker id="aa24" style="overflow:visible;" orient="auto">
		<path transform="matrix(-0.4,0,0,-0.4,-4,0)" style="stroke:black; stroke-width:1pt;" d="M 0,0 5,-5 -12.5,0 5,5 Z"/>
	</marker>
</defs>
<g style="fill:none; stroke:currentColor; stroke-width:1;" transform="matrix(0.370815,0,0,0.370815,-18.5066,-56.4491)"/>
<g style="fill:none; stroke:#999999; stroke-width:1;" transform="matrix(0.370815,0,0,0.370815,-18.5066,-56.4491)">
	<path style="stroke:#999999; stroke-width:1;" d="m 177,531 h 946"/>
</g>
<text x="41.9" y="145.3" style="text-align:end; text-anchor:end; font-size:16px; fill:black;">-1  </text>
<g style="fill:none; stroke:#999999; stroke-width:1;" transform="matrix(0.370815,0,0,0.370815,-18.5066,-56.4491)">
	<path style="stroke:#999999; stroke-width:1;" d="m 177,451 h 946"/>
</g>
<text x="41.9" y="115.6" style="text-align:end; text-anchor:end; font-size:16px; fill:black;">-0.5  </text>
<g style="fill:none; stroke:currentColor; stroke-width:1;" transform="matrix(0.370815,0,0,0.370815,-18.5066,-56.4491)">
	<path style="stroke-width:1;" d="m 177,371 h 946"/>
</g>
<text x="41.9" y="86" style="text-align:end; text-anchor:end; font-size:16px; fill:black;">0  </text>
<g style="fill:none; stroke:#999999; stroke-width:1;" transform="matrix(0.370815,0,0,0.370815,-18.5066,-56.4491)">
	<path style="stroke:#999999; stroke-width:1;" d="m 177,291 h 946"/>
</g>
<text x="41.9" y="56.3" style="text-align:end; text-anchor:end; font-size:16px; fill:black;">0.5  </text>
<g style="fill:none; stroke:#999999; stroke-width:1;" transform="matrix(0.370815,0,0,0.370815,-18.5066,-56.4491)">
	<path style="stroke:#999999; stroke-width:1;" d="m 177,210 h 946"/>
</g>
<text x="41.9" y="26.3" style="text-align:end; text-anchor:end; font-size:16px; fill:black;">1  </text>
<g style="fill:none; stroke:#999999; stroke-width:1.35;" transform="matrix(0.370815,0,0,0.204261,-5.83215,10.9675)">
	<path style="stroke:#999999; stroke-width:1.35;" d="M 286,692 V 50"/>
</g>
<text x="100.3" y="167.6" style="text-align:center; text-anchor:middle; fill:#204a87;">-3π/2</text>
<g style="fill:none; stroke:#999999; stroke-width:1.35;" transform="matrix(0.370815,0,0,0.204261,-9.28765,10.9675)">
	<path style="stroke:#999999; stroke-width:1.35;" d="M 407,692 V 50"/>
</g>
<text x="141.8" y="167.6" style="text-align:center; text-anchor:middle; fill:#204a87;">-π</text>
<g style="fill:none; stroke:#999999; stroke-width:1.35;" transform="matrix(0.370815,0,0,0.204261,-14.472,11.2853)">
	<path style="stroke:#999999; stroke-width:1.35;" d="M 529,692 V 50"/>
</g>
<text x="181.8" y="167.6" style="text-align:center; text-anchor:middle; fill:#204a87;">-π/2</text>
<g style="fill:none; stroke:currentColor; stroke-width:1.35;" transform="matrix(0.370815,0,0,0.204261,-18.5066,11.2853)">
	<path style="stroke-width:1.35;" d="M 650,692 V 50"/>
</g>
<text x="223.2" y="167.6" style="text-align:center; text-anchor:middle; fill:#204a87;">0 </text>
<g style="fill:none; stroke:#999999; stroke-width:1.35;" transform="matrix(0.370815,0,0,0.204261,-22.471,11.2853)">
	<path style="stroke:#999999; stroke-width:1.35;" d="M 771,692 V 50"/>
</g>
<text x="263.5" y="167.6" style="text-align:center; text-anchor:middle; fill:#204a87;">π/2</text>
<text x="303.5" y="167.6" style="text-align:center; text-anchor:middle; fill:#204a87;">π</text>
<text x="344.4" y="167.6" style="text-align:center; text-anchor:middle; fill:#204a87;">3π/2</text>
<g style="fill:none; stroke:currentColor; stroke-width:4;" transform="matrix(0.370815,0,0,0.370815,-18.5066,-56.4491)"/>
<g style="fill:none; stroke:currentColor; stroke-width:4;" transform="matrix(0.370815,0,0,0.370815,-18.5066,-56.4491)"/>
<g style="fill:none; stroke:currentColor; stroke-width:4;" transform="matrix(0.370815,0,0,0.370815,-18.5066,-56.4491)"/>
<path style="fill:none; stroke:#729fcf; stroke-width:2;" d="m 47.1,29.6 c 1.5,-1.9 3.2,-3.4 5.2,-4.8 1.6,-1.1 3,-2.4 5.6,-2.6 1.8,-0.8 5.7,-0.5 7,0.4 2.5,0.6 4.2,2.4 5.9,3.7 1.8,1.2 3.2,3.5 4.8,5.2 1.4,2.2 3.1,3.9 4.5,6.7 1.6,1.9 2.3,3.8 3.7,5.9 1.2,2.5 2.4,4.8 4.1,7.8 1.1,2.6 2.3,4.9 3.3,7 0.8,2.1 1.9,3.8 2.6,5.9 1.1,2.3 2.4,4.7 3.3,7.8 1.3,1.7 1.9,4.5 3,6.3 1,2.3 1.7,4.3 3,6.7 0.7,2.4 2,3.9 2.6,6.7 1.2,1.4 1.5,3.6 2.6,5.2 0.8,2.6 2.2,4.2 3,7 1.2,1.6 1.9,3.8 3,5.6 1.1,2.6 2.6,4.5 3.3,7 1.3,1.3 1.9,3.3 3,4.8 1.4,2.4 2.7,4.2 4.1,6.3 1.5,1.9 2.6,3.9 4.5,5.2 0.5,2 2.9,2.8 4.1,4.1 1.9,1.3 3.8,2.6 6.7,3 3.9,0.4 7.1,-0.6 8.9,-2.2 2.1,-1.1 3.8,-2.6 5.2,-4.5 1.7,-1.4 2.8,-3.3 4.1,-4.8 1.4,-1.8 2.5,-3.8 3.7,-5.6 1.5,-2.7 2.7,-4.3 4.1,-7.4 1.2,-1.6 1.9,-3.8 3,-5.6 1.1,-2.4 2.3,-4.2 3.3,-7 1,-2 2.2,-4.3 3,-6.7 1.1,-1.6 1.8,-3.8 2.6,-5.6 0.9,-2 2,-4 2.6,-6.3 1.3,-1.7 1.9,-4.5 3,-6.3 1,-2.6 2.1,-5.2 3.3,-7.4 0.7,-2.8 2.3,-4.7 3,-7.4 1.2,-1.6 2,-4.4 3,-5.9 1.1,-2.5 2.3,-5 3.3,-7 0.9,-2.1 2.3,-4.2 3.3,-6.3 1.1,-2.1 2.6,-4.5 3.7,-6.3 1.3,-2.1 2.8,-4.3 4.1,-5.9 1.6,-2.1 3.3,-4.1 5.2,-5.6 1.3,-1.7 2.9,-2.6 5.2,-3.7 1.9,-1.5 7.3,-1.6 9.6,-0.4 2.5,1 4.2,2.3 5.9,3.7 1.4,2 3.5,3.2 4.8,5.6 1.5,1.7 3,4 4.5,6.3 1.1,1.9 2.6,4.2 3.7,6.3 1,2.3 2.7,4.2 3.3,6.7 1.2,1.7 2.5,4.5 3.3,7 1.3,1.6 2.2,4.8 3.3,6.7 1,2.7 2.4,5 3.3,7.8 1.2,2 2,5.2 3.3,7 0.7,2.8 1.9,5 3,7 0.6,2.5 2.1,4.1 2.6,6.7 1.1,1.4 1.6,3.8 2.6,5.2 0.9,2.8 2.3,4.2 3,7 1.2,1.6 1.9,3.8 3,5.6 1.2,2.3 2.2,4.5 3.7,7 0.9,2 2.3,3.8 3.3,5.9 1.3,1.5 2.2,3.7 3.7,5.2 1.2,1.9 3.1,3.8 4.5,5.6 1.6,1.3 3,2.6 4.8,3.7 2.1,1.6 5.7,2.2 9.6,1.9 1.6,-0.9 3.7,-1.2 4.8,-2.6 1.7,-1 3.6,-2.5 4.8,-4.1 1.4,-1.7 2.9,-3 4.1,-5.2 1.3,-1.5 2.2,-3.2 3.3,-4.8 1.2,-2.1 2.4,-3.8 3.3,-5.9 1.2,-1.6 1.8,-3.5 3,-5.6 1.2,-2.3 2.3,-4.6 3.3,-6.7 1.1,-2 2.3,-5.1 3.3,-7 1,-2.6 1.9,-4.5 3,-6.7 1,-2.9 2.2,-4.3 3,-7.4 1.2,-1.5 1.7,-3.7 2.6,-5.6 1.1,-2.5 2.3,-5 3.3,-7.8 1.1,-2.4 2.1,-4.5 3,-6.7 1.1,-2 1.9,-4.3 3,-6.3 1,-2.2 2.4,-4.6 3.3,-7.4 1.7,-1.9 2.2,-4 3.3,-5.9 1.4,-2.3 2.3,-4.1 3.7,-6.3 1.7,-2.8 3.2,-5 5.2,-7.4 1.3,-1.5 2.9,-3.8 4.5,-4.8 1.7,-1.3 3.5,-3.1 5.9,-3.7 2.2,-1.3 7,-0.8 9.3,0 1.6,1.1 3.4,2 4.8,3.3 1.4,1.1 2.7,2.3 3.7,3.7"/>
<text x="384.4" y="168" style="text-align:center; text-anchor:middle; fill:#204a87;">2π </text>
<g style="fill:none; stroke:#999999; stroke-width:1.35;" transform="matrix(0.370815,0,0,0.204261,-45.0675,11.022)">
	<path style="stroke:#999999; stroke-width:1.35;" d="M 286,692 V 50"/>
</g>
<text x="60.7" y="167.7" style="text-align:center; text-anchor:middle; fill:#204a87;">-2π</text>
<g style="fill:none; stroke:#999999; stroke-width:1.35;" transform="matrix(0.370815,0,0,0.204261,98.1633,11.2853)">
	<path style="stroke:#999999; stroke-width:1.35;" d="M 771,692 V 50"/>
</g>
<g style="fill:none; stroke:#999999; stroke-width:1.35;" transform="matrix(0.370815,0,0,0.204261,17.74,11.2853)">
	<path style="stroke:#999999; stroke-width:1.35;" d="M 771,692 V 50"/>
</g>
<g style="fill:none; stroke:#999999; stroke-width:1.35;" transform="matrix(0.370815,0,0,0.204261,57.9523,11.2853)">
	<path style="stroke:#999999; stroke-width:1.35;" d="M 771,692 V 50"/>
</g>
<use transform="matrix(0.370815,0,0,0.168676,319.158,61.5829)" xlink:href="#aa6" x="-160" y="0"/>
<g style="opacity:0.4;" transform="matrix(0.370815,0,0,0.370815,-430.893,262.617)">
	<use xlink:href="#aa6" x="-80" y="0"/>
	<use xlink:href="#aa6" x="-40" y="0"/>
	<use xlink:href="#aa6" x="40" y="0"/>
	<use xlink:href="#aa6" x="80" y="0"/>
	<use xlink:href="#aa7" x="0" y="125.7"/>
	<use xlink:href="#aa7" x="0" y="62.8"/>
	<use xlink:href="#aa7" x="0" y="-62.8"/>
	<use xlink:href="#aa7" x="0" y="-125.7"/>
	<use xlink:href="#aa7" x="0" y="-188.5"/>
	<use xlink:href="#aa7" x="0" y="-251.3"/>
</g>
<use transform="matrix(0.370815,0,0,0.370815,-430.893,262.617)" xlink:href="#aa8" x="111" y="16"/>
<use transform="matrix(0.370815,0,0,0.370815,-430.893,262.617)" xlink:href="#aa9" x="-6" y="-149"/>
<use transform="matrix(0.370815,0,0,0.370815,-430.893,262.617)" xlink:href="#aa10" x="15" y="99"/>
<use transform="matrix(0.370815,0,0,0.370815,-430.893,262.617)" xlink:href="#aa11" x="15" y="-215"/>
<g style="stroke:white; stroke-width:350px; stroke-linejoin:round;" transform="matrix(0.370815,0,0,0.370815,-430.893,271.888)">
	<use xlink:href="#aa12" x="-80" y="0"/>
	<use xlink:href="#aa13" x="-40" y="0"/>
	<use xlink:href="#aa14" x="40" y="0"/>
	<use xlink:href="#aa15" x="80" y="0"/>
</g>
<g style="stroke:white; stroke-width:350px; stroke-linejoin:round;" transform="matrix(0.370815,0,0,0.370815,-433.86,265.213)">
	<use xlink:href="#aa16" x="0" y="125.7"/>
	<use xlink:href="#aa17" x="0" y="62.8"/>
	<use xlink:href="#aa18" x="0" y="-62.8"/>
	<use xlink:href="#aa19" x="0" y="-125.7"/>
	<use xlink:href="#aa20" x="0" y="-188.5"/>
	<use xlink:href="#aa21" x="0" y="-251.3"/>
</g>
<use transform="matrix(0.370815,0,0,0.370815,-430.893,262.617)" xlink:href="#aa8" x="111" y="16"/>
<use transform="matrix(0.370815,0,0,0.370815,-430.893,262.617)" xlink:href="#aa9" x="-6" y="-276"/>
<g transform="matrix(0.370815,0,0,0.370815,-430.893,271.888)">
	<use xlink:href="#aa12" x="-80" y="0"/>
	<use xlink:href="#aa13" x="-40" y="0"/>
	<use xlink:href="#aa14" x="40" y="0"/>
	<use xlink:href="#aa15" x="80" y="0"/>
</g>
<g transform="matrix(0.370815,0,0,0.370815,-433.86,265.213)">
	<use xlink:href="#aa16" x="0" y="125.7"/>
	<use xlink:href="#aa17" x="0" y="62.8"/>
	<use xlink:href="#aa18" x="0" y="-62.8"/>
	<use xlink:href="#aa19" x="0" y="-125.7"/>
	<use xlink:href="#aa20" x="0" y="-188.5"/>
	<use xlink:href="#aa21" x="0" y="-251.3"/>
</g>
<g transform="matrix(0.370815,0,0,0.370815,-430.893,262.617)">
	<use xlink:href="#aa22" x="-80" y="0"/>
	<use xlink:href="#aa22" x="-40" y="0"/>
	<use xlink:href="#aa22" x="40" y="0"/>
	<use xlink:href="#aa22" x="80" y="0"/>
	<use xlink:href="#aa23" x="0" y="125.7"/>
	<use xlink:href="#aa23" x="0" y="62.8"/>
	<use xlink:href="#aa23" x="0" y="-62.8"/>
	<use xlink:href="#aa23" x="0" y="-125.7"/>
	<use xlink:href="#aa23" x="0" y="-188.5"/>
	<use xlink:href="#aa23" x="0" y="-251.3"/>
</g>
<g style="opacity:0.4;" transform="matrix(0.370815,0,0,0.370815,154.705,50.1596)">
	<use xlink:href="#aa6" x="-80" y="0"/>
	<use xlink:href="#aa6" x="-40" y="0"/>
	<use xlink:href="#aa6" x="40" y="0"/>
	<use xlink:href="#aa6" x="80" y="0"/>
	<use xlink:href="#aa7" x="0" y="125.7"/>
	<use xlink:href="#aa7" x="0" y="62.8"/>
	<use xlink:href="#aa7" x="0" y="-62.8"/>
	<use xlink:href="#aa7" x="0" y="-125.7"/>
	<use xlink:href="#aa7" x="0" y="-188.5"/>
	<use xlink:href="#aa7" x="0" y="-251.3"/>
</g>
<path style="marker-end:url(#aa24); fill:#2e3436; fill-opacity:0.75; stroke:#2e3436; stroke-width:1.11;" d="M 47.1,81.1 H 408.5"/>
<path style="marker-end:url(#aa24); fill:#2e3436; fill-opacity:0.75; stroke:#2e3436; stroke-width:1.11;" d="M 222.4,153.1 V 2.2"/>
<text x="402.8" y="98.6" style="font-family:'Times New Roman'; font-weight:bold; font-size:20.8px; font-style:italic; fill:black; stroke-width:0.37px;">x</text>
<text x="204.7" y="13.1" style="font-family:'Times New Roman'; font-weight:bold; font-size:20.8px; font-style:italic; fill:black; stroke-width:0.37px;">y</text>
<text x="151.9" y="36.5" style="font-family:Arial; font-weight:bold; font-size:15.8px; font-style:italic; fill:#729fcf; stroke-width:0.37px;">cos(x)</text>
<text x="44.6" y="183.5" style="font-family:Arial; font-size:13.3px; fill:#8f5902; stroke-width:1px;">-360°</text>
<text x="83.9" y="183.5" style="font-family:Arial; font-size:13.3px; fill:#8f5902; stroke-width:1px;">-270°</text>
<text x="125.3" y="183.5" style="font-family:Arial; font-size:13.3px; fill:#8f5902; stroke-width:1px;">-180°</text>
<text x="169" y="183.5" style="font-family:Arial; font-size:13.3px; fill:#8f5902; stroke-width:1px;">-90°</text>
<text x="252.9" y="183.5" style="font-family:Arial; font-size:13.3px; fill:#8f5902; stroke-width:1px;">90°</text>
<text x="288.8" y="183.5" style="font-family:Arial; font-size:13.3px; fill:#8f5902; stroke-width:1px;">180°</text>
<text x="329.6" y="183.5" style="font-family:Arial; font-size:13.3px; fill:#8f5902; stroke-width:1px;">270°</text>
<text x="369.9" y="183.5" style="font-family:Arial; font-size:13.3px; fill:#8f5902; stroke-width:1px;">360°</text>
</svg>